<svg xmlns="http://www.w3.org/2000/svg" viewBox="0 0 740 280" font-family="-apple-system, Segoe UI, Arial, sans-serif">
  <rect x="2" y="2" width="736" height="276" rx="10" fill="#fff" stroke="#e4e4e4"/>
  <!-- Brotkrümel-Leiste -->
  <rect x="2" y="2" width="736" height="52" rx="10" fill="#faf9f8"/>
  <rect x="2" y="40" width="736" height="14" fill="#faf9f8"/>
  <rect x="22" y="16" width="26" height="26" rx="5" fill="#c4307d"/>
  <text x="28" y="34" fill="#fff" font-size="13" font-weight="700">Z1</text>
  <text x="60" y="35" fill="#202020" font-size="15" font-weight="600">RKT-020-Zug11</text>
  <text x="196" y="35" fill="#9a9a9a" font-size="15">›</text>
  <text x="214" y="35" fill="#3a3a3a" font-size="15">Dokumente</text>
  <text x="306" y="35" fill="#9a9a9a" font-size="15">›</text>
  <text x="324" y="35" fill="#202020" font-size="15" font-weight="700">General</text>
  <text x="392" y="36" font-size="15">🌐</text>
  <line x1="2" y1="54" x2="738" y2="54" stroke="#ededed"/>
  <!-- Spaltenkopf -->
  <text x="60" y="88" fill="#444" font-size="14">📄</text>
  <text x="88" y="88" fill="#444" font-size="14" font-weight="600">Name ⌄</text>
  <text x="560" y="88" fill="#888" font-size="13">Geändert</text>
  <line x1="22" y1="100" x2="718" y2="100" stroke="#ededed"/>
  <!-- Zeile 1: Ordner -->
  <text x="60" y="138" font-size="18">📁</text>
  <text x="92" y="138" fill="#202020" font-size="15">RK DienstLog</text>
  <text x="560" y="138" fill="#666" font-size="14">4. Mai</text>
  <line x1="22" y1="158" x2="718" y2="158" stroke="#f3f3f3"/>
  <!-- Zeile 2: Statistik.json -->
  <rect x="56" y="186" width="22" height="22" rx="3" fill="#eef1f4" stroke="#cfd6dd"/>
  <text x="59" y="202" fill="#5b6b7b" font-size="12" font-weight="700">&lt;/&gt;</text>
  <text x="92" y="203" fill="#202020" font-size="15" font-weight="600">Statistik.json</text>
  <text x="560" y="203" fill="#666" font-size="14">vor 5 Stunden</text>
  <!-- orange Markierung -->
  <ellipse cx="150" cy="197" rx="115" ry="26" fill="none" stroke="#E8870C" stroke-width="3.5"
           transform="rotate(-3 150 197)"/>
</svg>
